<svg id="visual" viewBox="0 0 900 600" width="900" height="600" xmlns="http://www.w3.org/2000/svg" xmlns:xlink="http://www.w3.org/1999/xlink" version="1.1"><rect width="900" height="600" fill="#000000"></rect><g><g transform="translate(493 546)"><path d="M144.8 -122.2C178.5 -73.2 190.4 -13.5 179 42.5C167.5 98.5 132.7 150.9 84.1 174C35.5 197.2 -26.8 191.1 -77.8 165.2C-128.9 139.2 -168.6 93.4 -185.9 37C-203.1 -19.4 -197.7 -86.4 -163 -135.7C-128.3 -184.9 -64.1 -216.3 -4.3 -212.9C55.5 -209.4 111.1 -171.1 144.8 -122.2Z" fill="#0a390e"></path></g><g transform="translate(239 15)"><path d="M103.4 -85.7C127.9 -51.7 137.6 -9 127.7 27C117.8 63.1 88.3 92.6 53.7 107.8C19.2 123 -20.5 123.9 -53.3 108.8C-86.1 93.7 -112.1 62.6 -120.7 27C-129.2 -8.6 -120.4 -48.8 -97.4 -82.5C-74.4 -116.1 -37.2 -143.2 1.1 -144.1C39.4 -145 78.8 -119.7 103.4 -85.7Z" fill="#0a390e"></path></g></g></svg>