<svg id="visual" viewBox="0 0 900 600" width="900" height="600" xmlns="http://www.w3.org/2000/svg" xmlns:xlink="http://www.w3.org/1999/xlink" version="1.1"><g stroke-width="1" stroke-linejoin="bevel"><path d="M420 300L420 240L360 240Z" fill="#021e01" stroke="#021e01"></path><path d="M360 240L360 300L420 300Z" fill="#000000" stroke="#000000"></path><path d="M420 240L420 180L360 240Z" fill="#042003" stroke="#042003"></path><path d="M360 180L300 240L360 240Z" fill="#021e01" stroke="#021e01"></path><path d="M360 240L300 240L360 300Z" fill="#001c00" stroke="#001c00"></path><path d="M360 300L420 360L420 300Z" fill="#052304" stroke="#052304"></path><path d="M300 240L300 300L360 300Z" fill="#042003" stroke="#042003"></path><path d="M360 300L360 360L420 360Z" fill="#062806" stroke="#062806"></path><path d="M300 300L360 360L360 300Z" fill="#062806" stroke="#062806"></path><path d="M420 360L480 300L420 300Z" fill="#001c00" stroke="#001c00"></path><path d="M420 300L480 300L420 240Z" fill="#042003" stroke="#042003"></path><path d="M420 240L480 240L420 180Z" fill="#000f00" stroke="#000f00"></path><path d="M420 180L360 180L360 240Z" fill="#052304" stroke="#052304"></path><path d="M480 300L480 240L420 240Z" fill="#062806" stroke="#062806"></path><path d="M420 360L480 360L480 300Z" fill="#001900" stroke="#001900"></path><path d="M300 300L300 360L360 360Z" fill="#000000" stroke="#000000"></path><path d="M480 240L480 180L420 180Z" fill="#042003" stroke="#042003"></path><path d="M360 180L300 180L300 240Z" fill="#042003" stroke="#042003"></path><path d="M360 360L420 420L420 360Z" fill="#062505" stroke="#062505"></path><path d="M420 360L420 420L480 360Z" fill="#000f00" stroke="#000f00"></path><path d="M360 420L420 420L360 360Z" fill="#001300" stroke="#001300"></path><path d="M300 360L360 420L360 360Z" fill="#001300" stroke="#001300"></path><path d="M480 180L420 120L420 180Z" fill="#001600" stroke="#001600"></path><path d="M420 180L420 120L360 180Z" fill="#001900" stroke="#001900"></path><path d="M360 180L360 120L300 180Z" fill="#000f00" stroke="#000f00"></path><path d="M480 300L540 240L480 240Z" fill="#001900" stroke="#001900"></path><path d="M480 240L540 240L480 180Z" fill="#042003" stroke="#042003"></path><path d="M540 300L540 240L480 300Z" fill="#062806" stroke="#062806"></path><path d="M420 120L360 120L360 180Z" fill="#021e01" stroke="#021e01"></path><path d="M480 360L540 300L480 300Z" fill="#001900" stroke="#001900"></path><path d="M300 180L240 240L300 240Z" fill="#062806" stroke="#062806"></path><path d="M300 240L240 240L300 300Z" fill="#052304" stroke="#052304"></path><path d="M300 300L240 300L300 360Z" fill="#042003" stroke="#042003"></path><path d="M240 240L240 300L300 300Z" fill="#052304" stroke="#052304"></path><path d="M480 420L540 360L480 360Z" fill="#001c00" stroke="#001c00"></path><path d="M480 360L540 360L540 300Z" fill="#001900" stroke="#001900"></path><path d="M480 180L480 120L420 120Z" fill="#001600" stroke="#001600"></path><path d="M540 180L480 120L480 180Z" fill="#042003" stroke="#042003"></path><path d="M540 240L540 180L480 180Z" fill="#042003" stroke="#042003"></path><path d="M240 300L240 360L300 360Z" fill="#001600" stroke="#001600"></path><path d="M300 360L300 420L360 420Z" fill="#001900" stroke="#001900"></path><path d="M360 120L300 120L300 180Z" fill="#000f00" stroke="#000f00"></path><path d="M300 180L240 180L240 240Z" fill="#052304" stroke="#052304"></path><path d="M240 360L300 420L300 360Z" fill="#021e01" stroke="#021e01"></path><path d="M300 120L240 180L300 180Z" fill="#000000" stroke="#000000"></path><path d="M420 420L480 420L480 360Z" fill="#062505" stroke="#062505"></path><path d="M540 360L600 300L540 300Z" fill="#001900" stroke="#001900"></path><path d="M540 300L600 300L540 240Z" fill="#000000" stroke="#000000"></path><path d="M540 240L600 240L540 180Z" fill="#062505" stroke="#062505"></path><path d="M240 240L180 300L240 300Z" fill="#001900" stroke="#001900"></path><path d="M240 300L180 300L240 360Z" fill="#052304" stroke="#052304"></path><path d="M180 240L180 300L240 240Z" fill="#000000" stroke="#000000"></path><path d="M600 300L600 240L540 240Z" fill="#052304" stroke="#052304"></path><path d="M480 120L420 60L420 120Z" fill="#021e01" stroke="#021e01"></path><path d="M420 120L420 60L360 120Z" fill="#042003" stroke="#042003"></path><path d="M360 120L360 60L300 120Z" fill="#021e01" stroke="#021e01"></path><path d="M360 480L420 480L360 420Z" fill="#021e01" stroke="#021e01"></path><path d="M360 420L420 480L420 420Z" fill="#000000" stroke="#000000"></path><path d="M420 420L420 480L480 420Z" fill="#052304" stroke="#052304"></path><path d="M300 120L240 120L240 180Z" fill="#001300" stroke="#001300"></path><path d="M240 180L180 240L240 240Z" fill="#052304" stroke="#052304"></path><path d="M300 60L240 120L300 120Z" fill="#021e01" stroke="#021e01"></path><path d="M420 60L360 60L360 120Z" fill="#062505" stroke="#062505"></path><path d="M300 420L360 480L360 420Z" fill="#062806" stroke="#062806"></path><path d="M180 360L240 420L240 360Z" fill="#062505" stroke="#062505"></path><path d="M240 360L240 420L300 420Z" fill="#062806" stroke="#062806"></path><path d="M300 420L300 480L360 480Z" fill="#062505" stroke="#062505"></path><path d="M600 180L540 120L540 180Z" fill="#052304" stroke="#052304"></path><path d="M540 180L540 120L480 120Z" fill="#001300" stroke="#001300"></path><path d="M480 120L480 60L420 60Z" fill="#001300" stroke="#001300"></path><path d="M480 420L540 420L540 360Z" fill="#000000" stroke="#000000"></path><path d="M540 360L600 360L600 300Z" fill="#001600" stroke="#001600"></path><path d="M480 480L540 420L480 420Z" fill="#001600" stroke="#001600"></path><path d="M180 180L180 240L240 180Z" fill="#021e01" stroke="#021e01"></path><path d="M420 480L480 480L480 420Z" fill="#000f00" stroke="#000f00"></path><path d="M240 420L300 480L300 420Z" fill="#021e01" stroke="#021e01"></path><path d="M540 420L600 360L540 360Z" fill="#001300" stroke="#001300"></path><path d="M180 300L180 360L240 360Z" fill="#021e01" stroke="#021e01"></path><path d="M360 60L300 60L300 120Z" fill="#062806" stroke="#062806"></path><path d="M600 240L600 180L540 180Z" fill="#000f00" stroke="#000f00"></path><path d="M540 120L480 60L480 120Z" fill="#000000" stroke="#000000"></path><path d="M240 120L180 180L240 180Z" fill="#001c00" stroke="#001c00"></path><path d="M240 60L180 120L240 120Z" fill="#052304" stroke="#052304"></path><path d="M240 120L180 120L180 180Z" fill="#042003" stroke="#042003"></path><path d="M600 180L600 120L540 120Z" fill="#000f00" stroke="#000f00"></path><path d="M540 120L540 60L480 60Z" fill="#062505" stroke="#062505"></path><path d="M480 480L540 480L540 420Z" fill="#001c00" stroke="#001c00"></path><path d="M540 420L600 420L600 360Z" fill="#062806" stroke="#062806"></path><path d="M180 360L180 420L240 420Z" fill="#001300" stroke="#001300"></path><path d="M240 420L240 480L300 480Z" fill="#001c00" stroke="#001c00"></path><path d="M600 120L540 60L540 120Z" fill="#001300" stroke="#001300"></path><path d="M300 60L240 60L240 120Z" fill="#052304" stroke="#052304"></path><path d="M540 480L600 420L540 420Z" fill="#052304" stroke="#052304"></path><path d="M180 420L240 480L240 420Z" fill="#062505" stroke="#062505"></path><path d="M360 480L420 540L420 480Z" fill="#000f00" stroke="#000f00"></path><path d="M420 480L420 540L480 480Z" fill="#000f00" stroke="#000f00"></path><path d="M480 480L480 540L540 480Z" fill="#042003" stroke="#042003"></path><path d="M360 540L420 540L360 480Z" fill="#000000" stroke="#000000"></path><path d="M360 540L360 480L300 480Z" fill="#000000" stroke="#000000"></path><path d="M600 360L660 300L600 300Z" fill="#000f00" stroke="#000f00"></path><path d="M600 300L660 300L600 240Z" fill="#021e01" stroke="#021e01"></path><path d="M600 240L660 240L600 180Z" fill="#062505" stroke="#062505"></path><path d="M600 180L660 180L600 120Z" fill="#001c00" stroke="#001c00"></path><path d="M660 360L660 300L600 360Z" fill="#052304" stroke="#052304"></path><path d="M300 540L360 540L300 480Z" fill="#001600" stroke="#001600"></path><path d="M180 240L120 300L180 300Z" fill="#000f00" stroke="#000f00"></path><path d="M180 300L120 300L180 360Z" fill="#001600" stroke="#001600"></path><path d="M180 360L120 360L180 420Z" fill="#042003" stroke="#042003"></path><path d="M120 240L120 300L180 240Z" fill="#001600" stroke="#001600"></path><path d="M120 240L180 240L180 180Z" fill="#042003" stroke="#042003"></path><path d="M660 300L660 240L600 240Z" fill="#000000" stroke="#000000"></path><path d="M120 180L120 240L180 180Z" fill="#062806" stroke="#062806"></path><path d="M420 60L420 0L360 60Z" fill="#001600" stroke="#001600"></path><path d="M360 60L360 0L300 60Z" fill="#042003" stroke="#042003"></path><path d="M300 60L300 0L240 60Z" fill="#001600" stroke="#001600"></path><path d="M480 60L420 0L420 60Z" fill="#001c00" stroke="#001c00"></path><path d="M480 0L420 0L480 60Z" fill="#001900" stroke="#001900"></path><path d="M420 0L360 0L360 60Z" fill="#000000" stroke="#000000"></path><path d="M120 300L120 360L180 360Z" fill="#001600" stroke="#001600"></path><path d="M600 420L660 360L600 360Z" fill="#001c00" stroke="#001c00"></path><path d="M240 480L300 540L300 480Z" fill="#001600" stroke="#001600"></path><path d="M420 540L480 540L480 480Z" fill="#000f00" stroke="#000f00"></path><path d="M360 0L300 0L300 60Z" fill="#021e01" stroke="#021e01"></path><path d="M540 60L480 0L480 60Z" fill="#062505" stroke="#062505"></path><path d="M660 240L660 180L600 180Z" fill="#062505" stroke="#062505"></path><path d="M180 120L120 180L180 180Z" fill="#000f00" stroke="#000f00"></path><path d="M540 480L600 480L600 420Z" fill="#052304" stroke="#052304"></path><path d="M600 420L660 420L660 360Z" fill="#001300" stroke="#001300"></path><path d="M540 540L600 480L540 480Z" fill="#062505" stroke="#062505"></path><path d="M120 420L180 480L180 420Z" fill="#001300" stroke="#001300"></path><path d="M180 420L180 480L240 480Z" fill="#001300" stroke="#001300"></path><path d="M240 480L240 540L300 540Z" fill="#062505" stroke="#062505"></path><path d="M240 60L180 60L180 120Z" fill="#021e01" stroke="#021e01"></path><path d="M180 120L120 120L120 180Z" fill="#001c00" stroke="#001c00"></path><path d="M240 0L180 60L240 60Z" fill="#001900" stroke="#001900"></path><path d="M660 120L600 60L600 120Z" fill="#001c00" stroke="#001c00"></path><path d="M600 120L600 60L540 60Z" fill="#042003" stroke="#042003"></path><path d="M540 60L540 0L480 0Z" fill="#042003" stroke="#042003"></path><path d="M300 0L240 0L240 60Z" fill="#062806" stroke="#062806"></path><path d="M180 480L240 540L240 480Z" fill="#000000" stroke="#000000"></path><path d="M480 540L540 540L540 480Z" fill="#062806" stroke="#062806"></path><path d="M600 60L540 0L540 60Z" fill="#062505" stroke="#062505"></path><path d="M600 480L660 420L600 420Z" fill="#001900" stroke="#001900"></path><path d="M120 360L120 420L180 420Z" fill="#001c00" stroke="#001c00"></path><path d="M180 60L120 120L180 120Z" fill="#001300" stroke="#001300"></path><path d="M660 180L660 120L600 120Z" fill="#001300" stroke="#001300"></path><path d="M60 180L60 240L120 180Z" fill="#062505" stroke="#062505"></path><path d="M120 180L60 240L120 240Z" fill="#001c00" stroke="#001c00"></path><path d="M120 240L60 240L120 300Z" fill="#021e01" stroke="#021e01"></path><path d="M120 300L60 300L120 360Z" fill="#062505" stroke="#062505"></path><path d="M120 360L60 360L120 420Z" fill="#001900" stroke="#001900"></path><path d="M720 360L720 300L660 360Z" fill="#001600" stroke="#001600"></path><path d="M660 360L720 300L660 300Z" fill="#000000" stroke="#000000"></path><path d="M660 300L720 300L660 240Z" fill="#062505" stroke="#062505"></path><path d="M660 240L720 240L660 180Z" fill="#062505" stroke="#062505"></path><path d="M660 180L720 180L660 120Z" fill="#001600" stroke="#001600"></path><path d="M720 300L720 240L660 240Z" fill="#042003" stroke="#042003"></path><path d="M60 240L60 300L120 300Z" fill="#001c00" stroke="#001c00"></path><path d="M360 540L360 600L420 540Z" fill="#001c00" stroke="#001c00"></path><path d="M420 540L420 600L480 540Z" fill="#001300" stroke="#001300"></path><path d="M480 540L480 600L540 540Z" fill="#021e01" stroke="#021e01"></path><path d="M300 540L360 600L360 540Z" fill="#001c00" stroke="#001c00"></path><path d="M300 600L360 600L300 540Z" fill="#001900" stroke="#001900"></path><path d="M360 600L420 600L420 540Z" fill="#001900" stroke="#001900"></path><path d="M660 60L600 0L600 60Z" fill="#001600" stroke="#001600"></path><path d="M600 60L600 0L540 0Z" fill="#001c00" stroke="#001c00"></path><path d="M420 600L480 600L480 540Z" fill="#052304" stroke="#052304"></path><path d="M720 240L720 180L660 180Z" fill="#062806" stroke="#062806"></path><path d="M660 120L660 60L600 60Z" fill="#001300" stroke="#001300"></path><path d="M180 60L120 60L120 120Z" fill="#001900" stroke="#001900"></path><path d="M120 120L60 180L120 180Z" fill="#000f00" stroke="#000f00"></path><path d="M180 0L120 60L180 60Z" fill="#062806" stroke="#062806"></path><path d="M120 480L180 540L180 480Z" fill="#001300" stroke="#001300"></path><path d="M180 480L180 540L240 540Z" fill="#062505" stroke="#062505"></path><path d="M240 540L300 600L300 540Z" fill="#062806" stroke="#062806"></path><path d="M660 420L720 360L660 360Z" fill="#000f00" stroke="#000f00"></path><path d="M720 120L660 60L660 120Z" fill="#001300" stroke="#001300"></path><path d="M240 600L300 600L240 540Z" fill="#062806" stroke="#062806"></path><path d="M240 0L180 0L180 60Z" fill="#052304" stroke="#052304"></path><path d="M60 120L60 180L120 120Z" fill="#001c00" stroke="#001c00"></path><path d="M60 300L60 360L120 360Z" fill="#001900" stroke="#001900"></path><path d="M120 420L120 480L180 480Z" fill="#042003" stroke="#042003"></path><path d="M600 480L660 480L660 420Z" fill="#021e01" stroke="#021e01"></path><path d="M660 420L720 420L720 360Z" fill="#001c00" stroke="#001c00"></path><path d="M600 540L660 480L600 480Z" fill="#052304" stroke="#052304"></path><path d="M600 540L600 480L540 540Z" fill="#052304" stroke="#052304"></path><path d="M60 420L120 480L120 420Z" fill="#001300" stroke="#001300"></path><path d="M540 600L600 540L540 540Z" fill="#000000" stroke="#000000"></path><path d="M480 600L540 600L540 540Z" fill="#000f00" stroke="#000f00"></path><path d="M120 60L60 120L120 120Z" fill="#000f00" stroke="#000f00"></path><path d="M660 480L720 420L660 420Z" fill="#000000" stroke="#000000"></path><path d="M720 180L720 120L660 120Z" fill="#001300" stroke="#001300"></path><path d="M180 540L240 600L240 540Z" fill="#062806" stroke="#062806"></path><path d="M60 360L60 420L120 420Z" fill="#052304" stroke="#052304"></path><path d="M600 540L660 540L660 480Z" fill="#000f00" stroke="#000f00"></path><path d="M660 480L720 480L720 420Z" fill="#001300" stroke="#001300"></path><path d="M600 600L660 540L600 540Z" fill="#062505" stroke="#062505"></path><path d="M60 480L120 540L120 480Z" fill="#001600" stroke="#001600"></path><path d="M120 480L120 540L180 540Z" fill="#001600" stroke="#001600"></path><path d="M180 540L180 600L240 600Z" fill="#001900" stroke="#001900"></path><path d="M720 60L660 0L660 60Z" fill="#042003" stroke="#042003"></path><path d="M660 60L660 0L600 0Z" fill="#042003" stroke="#042003"></path><path d="M180 0L120 0L120 60Z" fill="#001c00" stroke="#001c00"></path><path d="M120 60L60 60L60 120Z" fill="#062806" stroke="#062806"></path><path d="M0 180L0 240L60 180Z" fill="#001600" stroke="#001600"></path><path d="M60 180L0 240L60 240Z" fill="#062505" stroke="#062505"></path><path d="M60 240L0 240L60 300Z" fill="#001c00" stroke="#001c00"></path><path d="M60 300L0 300L60 360Z" fill="#001600" stroke="#001600"></path><path d="M60 360L0 360L60 420Z" fill="#000f00" stroke="#000f00"></path><path d="M120 0L60 60L120 60Z" fill="#001300" stroke="#001300"></path><path d="M60 120L0 180L60 180Z" fill="#062806" stroke="#062806"></path><path d="M540 600L600 600L600 540Z" fill="#042003" stroke="#042003"></path><path d="M720 120L720 60L660 60Z" fill="#062505" stroke="#062505"></path><path d="M660 540L720 480L660 480Z" fill="#001600" stroke="#001600"></path><path d="M720 240L780 240L720 180Z" fill="#001900" stroke="#001900"></path><path d="M720 180L780 180L720 120Z" fill="#001600" stroke="#001600"></path><path d="M720 120L780 120L720 60Z" fill="#000f00" stroke="#000f00"></path><path d="M720 300L780 240L720 240Z" fill="#000000" stroke="#000000"></path><path d="M780 300L780 240L720 300Z" fill="#000f00" stroke="#000f00"></path><path d="M780 300L720 300L720 360Z" fill="#042003" stroke="#042003"></path><path d="M780 300L720 360L780 360Z" fill="#062505" stroke="#062505"></path><path d="M120 540L180 600L180 540Z" fill="#001900" stroke="#001900"></path><path d="M0 240L0 300L60 300Z" fill="#001c00" stroke="#001c00"></path><path d="M60 420L60 480L120 480Z" fill="#062505" stroke="#062505"></path><path d="M0 420L60 480L60 420Z" fill="#062505" stroke="#062505"></path><path d="M780 360L720 360L720 420Z" fill="#001900" stroke="#001900"></path><path d="M780 420L780 360L720 420Z" fill="#021e01" stroke="#021e01"></path><path d="M780 240L780 180L720 180Z" fill="#001900" stroke="#001900"></path><path d="M0 120L0 180L60 120Z" fill="#000f00" stroke="#000f00"></path><path d="M0 300L0 360L60 360Z" fill="#021e01" stroke="#021e01"></path><path d="M780 180L780 120L720 120Z" fill="#052304" stroke="#052304"></path><path d="M0 360L0 420L60 420Z" fill="#000f00" stroke="#000f00"></path><path d="M720 480L780 420L720 420Z" fill="#042003" stroke="#042003"></path><path d="M60 60L0 120L60 120Z" fill="#000000" stroke="#000000"></path><path d="M780 60L720 0L720 60Z" fill="#001900" stroke="#001900"></path><path d="M720 60L720 0L660 0Z" fill="#000f00" stroke="#000f00"></path><path d="M660 540L720 540L720 480Z" fill="#052304" stroke="#052304"></path><path d="M720 480L780 480L780 420Z" fill="#052304" stroke="#052304"></path><path d="M660 600L720 540L660 540Z" fill="#001300" stroke="#001300"></path><path d="M120 0L60 0L60 60Z" fill="#001c00" stroke="#001c00"></path><path d="M60 60L0 60L0 120Z" fill="#000000" stroke="#000000"></path><path d="M0 480L60 540L60 480Z" fill="#000000" stroke="#000000"></path><path d="M60 480L60 540L120 540Z" fill="#062505" stroke="#062505"></path><path d="M120 540L120 600L180 600Z" fill="#001600" stroke="#001600"></path><path d="M60 540L120 600L120 540Z" fill="#000f00" stroke="#000f00"></path><path d="M600 600L660 600L660 540Z" fill="#001600" stroke="#001600"></path><path d="M0 420L0 480L60 480Z" fill="#001900" stroke="#001900"></path><path d="M720 540L780 480L720 480Z" fill="#001900" stroke="#001900"></path><path d="M60 0L0 60L60 60Z" fill="#021e01" stroke="#021e01"></path><path d="M780 120L780 60L720 60Z" fill="#042003" stroke="#042003"></path><path d="M780 180L840 180L780 120Z" fill="#042003" stroke="#042003"></path><path d="M780 120L840 120L780 60Z" fill="#000000" stroke="#000000"></path><path d="M780 240L840 240L780 180Z" fill="#001900" stroke="#001900"></path><path d="M780 300L840 240L780 240Z" fill="#001300" stroke="#001300"></path><path d="M840 300L840 240L780 300Z" fill="#062505" stroke="#062505"></path><path d="M840 300L780 300L780 360Z" fill="#000000" stroke="#000000"></path><path d="M840 300L780 360L840 360Z" fill="#001900" stroke="#001900"></path><path d="M840 360L780 360L780 420Z" fill="#001c00" stroke="#001c00"></path><path d="M840 420L840 360L780 420Z" fill="#052304" stroke="#052304"></path><path d="M840 240L840 180L780 180Z" fill="#001c00" stroke="#001c00"></path><path d="M0 540L60 600L60 540Z" fill="#001300" stroke="#001300"></path><path d="M60 540L60 600L120 600Z" fill="#001600" stroke="#001600"></path><path d="M720 540L780 540L780 480Z" fill="#001300" stroke="#001300"></path><path d="M660 600L720 600L720 540Z" fill="#042003" stroke="#042003"></path><path d="M720 600L780 540L720 540Z" fill="#001c00" stroke="#001c00"></path><path d="M780 480L840 420L780 420Z" fill="#052304" stroke="#052304"></path><path d="M60 0L0 0L0 60Z" fill="#001300" stroke="#001300"></path><path d="M0 480L0 540L60 540Z" fill="#000f00" stroke="#000f00"></path><path d="M840 60L780 0L780 60Z" fill="#001300" stroke="#001300"></path><path d="M780 60L780 0L720 0Z" fill="#042003" stroke="#042003"></path><path d="M840 180L840 120L780 120Z" fill="#001900" stroke="#001900"></path><path d="M840 480L840 420L780 480Z" fill="#001300" stroke="#001300"></path><path d="M780 540L840 480L780 480Z" fill="#001600" stroke="#001600"></path><path d="M840 120L840 60L780 60Z" fill="#000000" stroke="#000000"></path><path d="M900 360L840 360L840 420Z" fill="#052304" stroke="#052304"></path><path d="M900 360L900 300L840 360Z" fill="#052304" stroke="#052304"></path><path d="M840 360L900 300L840 300Z" fill="#001300" stroke="#001300"></path><path d="M840 300L900 300L840 240Z" fill="#062505" stroke="#062505"></path><path d="M840 240L900 240L840 180Z" fill="#062806" stroke="#062806"></path><path d="M840 180L900 180L840 120Z" fill="#001900" stroke="#001900"></path><path d="M840 120L900 120L840 60Z" fill="#062806" stroke="#062806"></path><path d="M780 540L840 540L840 480Z" fill="#001c00" stroke="#001c00"></path><path d="M720 600L780 600L780 540Z" fill="#062505" stroke="#062505"></path><path d="M900 300L900 240L840 240Z" fill="#001c00" stroke="#001c00"></path><path d="M0 540L0 600L60 600Z" fill="#000f00" stroke="#000f00"></path><path d="M900 420L900 360L840 420Z" fill="#042003" stroke="#042003"></path><path d="M900 240L900 180L840 180Z" fill="#001900" stroke="#001900"></path><path d="M900 60L840 0L840 60Z" fill="#000000" stroke="#000000"></path><path d="M840 60L840 0L780 0Z" fill="#001c00" stroke="#001c00"></path><path d="M780 600L840 540L780 540Z" fill="#001600" stroke="#001600"></path><path d="M840 480L900 420L840 420Z" fill="#062806" stroke="#062806"></path><path d="M900 180L900 120L840 120Z" fill="#001c00" stroke="#001c00"></path><path d="M900 480L900 420L840 480Z" fill="#052304" stroke="#052304"></path><path d="M840 540L900 480L840 480Z" fill="#042003" stroke="#042003"></path><path d="M900 120L900 60L840 60Z" fill="#001900" stroke="#001900"></path><path d="M780 600L840 600L840 540Z" fill="#062505" stroke="#062505"></path><path d="M840 540L900 540L900 480Z" fill="#001600" stroke="#001600"></path><path d="M840 600L900 540L840 540Z" fill="#001600" stroke="#001600"></path><path d="M900 60L900 0L840 0Z" fill="#052304" stroke="#052304"></path><path d="M840 600L900 600L900 540Z" fill="#001900" stroke="#001900"></path></g></svg>